<?xml version="1.0" encoding="UTF-8"?>
<svg width="25px" height="25px" viewBox="0 0 25 25" version="1.1" xmlns="http://www.w3.org/2000/svg" xmlns:xlink="http://www.w3.org/1999/xlink">
    <!-- Generator: Sketch 60 (88103) - https://sketch.com -->
    <title>noun_date_2481245</title>
    <desc>Created with Sketch.</desc>
    <g id="Page-1" stroke="none" stroke-width="1" fill="none" fill-rule="evenodd">
        <g id="gis-main-5" transform="translate(-29.000000, -409.000000)" fill="#FFFFFF" fill-rule="nonzero" stroke="#FFFFFF" stroke-width="0.3">
            <g id="사이드">
                <g id="Group-26" transform="translate(17.000000, 410.000000)">
                    <g id="noun_date_2481245" transform="translate(13.000000, 0.000000)">
                        <path d="M21.0989011,12.4701442 L21.0989011,5.01119209 C21.0975625,3.84649071 20.1537124,2.90265119 18.989011,2.90132571 L17.6703297,2.90132571 L17.6703297,1.58239912 C17.6703297,0.708454022 16.9618572,-1.84615385e-05 16.0879121,-1.84615385e-05 C15.213967,-1.84615385e-05 14.5054945,0.708454022 14.5054945,1.58239912 L14.5054945,2.90132571 L6.59340659,2.90132571 L6.59340659,1.58239912 C6.59340659,0.708454022 5.88493411,-1.84615385e-05 5.01098901,-1.84615385e-05 C4.13704391,-1.84615385e-05 3.42857143,0.708454022 3.42857143,1.58239912 L3.42857143,2.90132571 L2.10989011,2.90132571 C0.945188717,2.90265119 0.00133858228,3.84649071 0,5.01119209 L0,18.9890637 C0.00133858228,20.1537651 0.945188717,21.0976046 2.10989011,21.0989301 L12.4700229,21.0989301 C13.8892973,23.1223326 16.3755139,24.108476 18.7958562,23.6080351 C21.2161984,23.1075942 23.1074716,21.2163412 23.6079384,18.7960043 C24.1084052,16.3756674 23.1222884,13.8894403 21.0989011,12.4701442 Z M15.5604396,1.58239912 C15.5604396,1.29108409 15.7965971,1.05492659 16.0879121,1.05492659 C16.3792271,1.05492659 16.6153846,1.29108409 16.6153846,1.58239912 L16.6153846,4.48346901 C16.6153846,4.77478404 16.3792271,5.01094154 16.0879121,5.01094154 C15.7965971,5.01094154 15.5604396,4.77478404 15.5604396,4.48346901 L15.5604396,1.58239912 Z M4.48351648,1.58239912 C4.48351648,1.29108409 4.71967398,1.05492659 5.01098901,1.05492659 C5.30230404,1.05492659 5.53846154,1.29108409 5.53846154,1.58239912 L5.53846154,4.48346901 C5.53846154,4.77478404 5.30230404,5.01094154 5.01098901,5.01094154 C4.71967398,5.01094154 4.48351648,4.77478404 4.48351648,4.48346901 L4.48351648,1.58239912 Z M2.10989011,3.95625758 L3.42857143,3.95625758 L3.42857143,4.48346637 C3.42857143,5.35741147 4.13704391,6.06588396 5.01098901,6.06588396 C5.88493411,6.06588396 6.59340659,5.35741147 6.59340659,4.48346637 L6.59340659,3.95625758 L14.5054945,3.95625758 L14.5054945,4.48346637 C14.5054945,5.35741147 15.213967,6.06588396 16.0879121,6.06588396 C16.9618572,6.06588396 17.6703297,5.35741147 17.6703297,4.48346637 L17.6703297,3.95625758 L18.989011,3.95625758 C19.5713663,3.95692033 20.0432933,4.42884731 20.043956,5.01120264 L20.043956,7.64828044 L1.05494505,7.64828044 L1.05494505,5.01119209 C1.05561362,4.42884088 1.5275389,3.95692032 2.10989011,3.95625758 L2.10989011,3.95625758 Z M2.10989011,20.0439956 C1.52753933,20.0433343 1.05561362,19.5714145 1.05494505,18.9890637 L1.05494505,8.70320176 L20.043956,8.70320176 L20.043956,11.8717688 C17.7030997,10.8345606 14.965332,11.3444988 13.1548792,13.1549324 C11.3444263,14.965366 10.8344589,17.7031282 11.8716422,20.0439956 L2.10989011,20.0439956 Z M17.5384615,22.6813187 C14.6981764,22.6813187 12.3957152,20.3787616 12.3957152,17.5384765 C12.3957152,14.6981913 14.6982573,12.3957152 17.5385424,12.3957152 C20.3788276,12.3957152 22.6813187,14.6982423 22.6813187,17.5385275 C22.678108,20.3775074 20.3774415,22.6781444 17.5384615,22.6813187 L17.5384615,22.6813187 Z" id="Shape"></path>
                        <path d="M21.3786066,15.4246708 C21.3044373,15.3504634 21.2038193,15.308771 21.0989011,15.308771 C20.9939829,15.308771 20.8933649,15.3504634 20.8191956,15.4246708 L16.9030734,19.3407508 L15.1567226,17.5944185 C15.0567949,17.4944893 14.9111463,17.4554618 14.7746413,17.4920372 C14.6381362,17.5286125 14.5315131,17.6352342 14.4949358,17.7717387 C14.4583584,17.9082432 14.4973839,18.0538924 14.5973116,18.1538215 L16.6233679,20.1798435 C16.6975376,20.2540502 16.7981555,20.2957422 16.9030734,20.2957422 C17.0079913,20.2957422 17.1086092,20.2540502 17.1827789,20.1798435 L21.3786066,15.9840633 C21.4528096,15.9098954 21.4944993,15.8092811 21.4944993,15.704367 C21.4944993,15.599453 21.4528096,15.4988387 21.3786066,15.4246708 L21.3786066,15.4246708 Z" id="Path"></path>
                    </g>
                </g>
            </g>
        </g>
    </g>
</svg>