<?xml version="1.0" encoding="UTF-8"?>
<svg width="35px" height="23px" viewBox="0 0 35 23" version="1.1" xmlns="http://www.w3.org/2000/svg" xmlns:xlink="http://www.w3.org/1999/xlink">
    <!-- Generator: Sketch 60 (88103) - https://sketch.com -->
    <title>noun_Map_929054</title>
    <desc>Created with Sketch.</desc>
    <g id="Page-1" stroke="none" stroke-width="1" fill="none" fill-rule="evenodd">
        <g id="gis-main-5" transform="translate(-23.000000, -96.000000)" fill="#FFFFFF" fill-rule="nonzero" stroke="#FFFFFF" stroke-width="0.5">
            <g id="사이드">
                <g id="Group-8" transform="translate(17.000000, 97.000000)">
                    <g id="noun_Map_929054" transform="translate(7.000000, 0.000000)">
                        <path d="M32.8692333,19.7325 L27.7538479,9.755 C27.489828,9.235 26.8297783,8.7475 26.2357335,8.65 L22.7704724,8.065 C22.5064525,8.0325 22.2424327,8 22.0444177,8 C21.6813904,8 21.2853605,8.0325 21.0213407,8.0975 L17.1600497,8.975 C16.9950373,9.0075 16.7640199,9.04 16.5,9.04 C16.2359801,9.04 16.0049627,9.0075 15.8399503,8.975 L14.8498757,8.7475 L14.8498757,9.7875 L15.6089329,9.95 C15.8399503,10.015 16.1699751,10.0475 16.5,10.0475 C16.8300249,10.0475 17.1270472,10.015 17.3910671,9.95 L21.2853605,9.105 C21.4833755,9.0725 21.7803978,9.04 22.0774202,9.04 C22.2754351,9.04 22.4734501,9.04 22.6384625,9.0725 L26.1037236,9.6575 C26.3677435,9.69 26.7307708,9.9825 26.8627808,10.21 L31.8131537,19.895 L25.047644,18.335 C24.8166266,18.27 24.4866017,18.2375 24.1565769,18.2375 C23.826552,18.2375 23.5295296,18.27 23.2985122,18.335 L17.1600497,19.7 C16.9950373,19.7325 16.7640199,19.765 16.5,19.765 C16.2359801,19.765 16.0049627,19.7325 15.8399503,19.7 L9.73449027,18.335 C9.50347286,18.27 9.20645048,18.2375 8.87642562,18.2375 C8.54640075,18.2375 8.21637589,18.27 7.98535848,18.335 L1.18684626,19.895 L6.13721924,10.21 C6.26922919,9.9825 6.63225654,9.69 6.89627643,9.6575 L10.39454,9.0725 C10.5265499,9.04 10.7245649,9.04 10.9555823,9.04 C11.2526046,9.04 11.549627,9.0725 11.7476419,9.105 L12.4736966,9.2675 L12.4736966,8.2275 L11.9456569,8.13 C11.681637,8.065 11.2856071,8.0325 10.9225798,8.0325 C10.7245649,8.0325 10.460545,8.0325 10.1965251,8.0975 L6.731264,8.6825 C6.13721924,8.78 5.510172,9.2675 5.21314962,9.7875 L0.130766696,19.7325 C-0.100250709,20.1875 0.0317592368,20.48 0.0977642098,20.6425 C0.295779129,20.935 0.65880648,21.065 1.12084129,20.9675 L8.21637589,19.31 C8.38138832,19.2775 8.64540821,19.245 8.87642562,19.245 C9.10744302,19.245 9.33846043,19.2775 9.50347286,19.31 L15.6089329,20.675 C15.8399503,20.74 16.1699751,20.7725 16.5,20.7725 C16.8300249,20.7725 17.1270472,20.74 17.3910671,20.675 L23.4965271,19.31 C23.6615396,19.2775 23.892557,19.245 24.1235744,19.245 C24.3875943,19.245 24.6186117,19.2775 24.7836241,19.31 L31.8791587,20.9675 C31.9781662,21 32.0771736,21 32.1761811,21 L32.1761811,21 C32.4732035,21 32.7372234,20.87 32.9022358,20.6425 C32.9682408,20.48 33.1002507,20.1875 32.8692333,19.7325 Z M10.6677897,10.0147396 C10.454111,9.94789503 10.2137224,10.1150065 10.1603027,10.3823849 L9.01177935,16.3649763 C8.95835966,16.6323547 9.09190889,16.9331554 9.30558765,17 C9.33229749,17 9.35900734,17 9.41242703,17 C9.59939594,17 9.75965501,16.8328885 9.8130747,16.5989324 L10.9883079,10.6497633 C11.0417276,10.3489626 10.9081783,10.0815842 10.6677897,10.0147396 Z M23.582009,17 C23.6090791,17 23.6361493,17 23.6902897,17 C23.9068512,16.9331554 24.0422021,16.665777 23.9880617,16.3649763 L22.8240438,10.3823849 C22.7699034,10.1150065 22.553342,9.94789503 22.3097103,10.0147396 C22.0931488,10.0815842 21.9577979,10.3489626 22.0119383,10.6497633 L23.1759562,16.5989324 C23.2300966,16.8328885 23.3925177,17 23.582009,17 Z M12.7294118,5.57020057 C12.9411765,5.67335244 13.1882353,5.74212034 13.4352941,5.81088825 L13.4352941,11.4498567 C13.4352941,11.7593123 13.6823529,12 14,12 C14.3176471,12 14.5647059,11.7593123 14.5647059,11.4498567 L14.5647059,5.81088825 C14.8117647,5.7765043 15.0588235,5.67335244 15.2705882,5.57020057 C16.2941176,5.08882521 17,4.09169054 17,2.9226361 C17,1.30659026 15.6588235,0 14,0 C12.3411765,0 11,1.30659026 11,2.9226361 C11,4.09169054 11.7058824,5.08882521 12.7294118,5.57020057 Z M14,1 C15.1111111,1 16,1.88888889 16,3 C16,4.11111111 15.1111111,5 14,5 C12.8888889,5 12,4.11111111 12,3 C12,1.88888889 12.8888889,1 14,1 Z M17,18.4336283 L17,11.5663717 C17,11.2477876 16.78125,11 16.5,11 C16.21875,11 16,11.2477876 16,11.5663717 L16,18.4336283 C16,18.7522124 16.21875,19 16.5,19 C16.78125,19 17,18.7522124 17,18.4336283 Z" id="Shape"></path>
                    </g>
                </g>
            </g>
        </g>
    </g>
</svg>