<?xml version="1.0" encoding="UTF-8"?>
<svg width="23px" height="24px" viewBox="0 0 23 24" version="1.1" xmlns="http://www.w3.org/2000/svg" xmlns:xlink="http://www.w3.org/1999/xlink">
    <!-- Generator: Sketch 60 (88103) - https://sketch.com -->
    <title>noun_toxic_123165</title>
    <desc>Created with Sketch.</desc>
    <g id="Page-1" stroke="none" stroke-width="1" fill="none" fill-rule="evenodd">
        <g id="gis-main-5" transform="translate(-31.000000, -15.000000)" fill="#FFFFFF" fill-rule="nonzero" stroke="#FFFFFF" stroke-width="0.3">
            <g id="사이드">
                <g id="Group-10">
                    <g id="Group-9">
                        <g id="Group-7" transform="translate(6.000000, 16.000000)">
                            <g id="noun_toxic_123165" transform="translate(25.500000, 0.000000)">
                                <g id="Group">
                                    <path d="M11,22 C4.934875,22 0,17.065125 0,11 C0,4.934875 4.934875,0 11,0 C17.065125,0 22,4.934875 22,11 C22,17.065125 17.065125,22 11,22 Z M11,0.916666667 C5.43995833,0.916666667 0.916666667,5.43995833 0.916666667,11 C0.916666667,16.5600417 5.43995833,21.0833333 11,21.0833333 C16.5600417,21.0833333 21.0833333,16.5600417 21.0833333,11 C21.0833333,5.43995833 16.5600417,0.916666667 11,0.916666667 Z" id="Shape"></path>
                                    <path d="M11,12.6371667 C10.0970833,12.6371667 9.36283333,11.9024583 9.36283333,11 C9.36283333,10.0975417 10.0970833,9.36283333 11,9.36283333 C11.9029167,9.36283333 12.6371667,10.0970833 12.6371667,11 C12.6371667,11.9029167 11.9029167,12.6371667 11,12.6371667 Z M11,10.2795 C10.602625,10.2795 10.2795,10.602625 10.2795,11 C10.2795,11.397375 10.602625,11.7205 11,11.7205 C11.397375,11.7205 11.7205,11.397375 11.7205,11 C11.7205,10.602625 11.397375,10.2795 11,10.2795 Z" id="Shape"></path>
                                    <path d="M8.12808333,11.4849167 L2.80225,11.4849167 C2.54925,11.4849167 2.34391667,11.2800417 2.34391667,11.0265833 C2.34391667,7.96354167 3.920125,5.190625 6.560125,3.608 C6.664625,3.54566667 6.78975,3.526875 6.90708333,3.55666667 C7.024875,3.586 7.126625,3.661625 7.18895833,3.76566667 L9.923375,8.33525 C10.0535417,8.5525 9.98295833,8.83345833 9.76570833,8.963625 C9.02825,9.40591667 8.58733333,10.1772917 8.58641667,11.0270417 C8.58595833,11.2800417 8.38108333,11.4849167 8.12808333,11.4849167 Z M3.273875,10.56825 L7.701375,10.56825 C7.81779167,9.728125 8.24908333,8.97233333 8.91733333,8.43929167 L6.64491667,4.64108333 C4.643375,6.00141667 3.41320833,8.16475 3.273875,10.56825 Z" id="Shape"></path>
                                    <path d="M19.1872083,11.4849167 L13.8581667,11.4849167 C13.6051667,11.4849167 13.4002917,11.2800417 13.3998333,11.0265833 C13.3989167,10.1649167 12.964875,9.39079167 12.2384167,8.955375 C12.0211667,8.82520833 11.9505833,8.54425 12.0802917,8.32654167 L14.8147083,3.75695833 C14.8775,3.65245833 14.9783333,3.57729167 15.0965833,3.54795833 C15.2139167,3.51770833 15.3390417,3.53695833 15.4435417,3.59929167 C18.071625,5.17275 19.6423333,7.948875 19.6455417,11.0256667 C19.6455417,11.1475833 19.5974167,11.264 19.51125,11.3501667 C19.4250833,11.4363333 19.309125,11.4849167 19.1872083,11.4849167 Z M14.2857917,10.5677917 L18.7155833,10.5677917 C18.5753333,8.15329167 17.3502083,5.98629167 15.3596667,4.632375 L13.0863333,8.43104167 C13.745875,8.96179167 14.172125,9.72033333 14.2857917,10.5677917 Z" id="Shape"></path>
                                    <path d="M11.0215417,19.6757917 C9.714375,19.6757917 8.40033333,19.37375 7.22104167,18.803125 C7.1115,18.7499583 7.027625,18.6555417 6.98775,18.5405 C6.947875,18.4259167 6.95520833,18.299875 7.008375,18.189875 L9.337625,13.398 C9.44808333,13.1702083 9.72170833,13.07625 9.9495,13.1857917 C10.7025417,13.5510833 11.622875,13.49975 12.3204583,13.0441667 C12.5326667,12.9052917 12.816375,12.964875 12.9547917,13.1770833 L15.8679583,17.634375 C16.0068333,17.846125 15.94725,18.1302917 15.7350417,18.2687083 C14.3284167,19.1890417 12.6976667,19.6757917 11.0215417,19.6757917 Z M8.04008333,18.1655833 C8.98333333,18.5547083 10.0049583,18.759125 11.0215417,18.759125 C12.3662917,18.759125 13.6780417,18.4080417 14.843125,17.7407083 L12.4212917,14.0355417 C11.6677917,14.3898333 10.78,14.444375 9.97608333,14.18175 L8.04008333,18.1655833 Z" id="Shape"></path>
                                </g>
                            </g>
                        </g>
                    </g>
                </g>
            </g>
        </g>
    </g>
</svg>