<?xml version="1.0" encoding="UTF-8"?>
<svg width="22px" height="25px" viewBox="0 0 22 25" version="1.1" xmlns="http://www.w3.org/2000/svg" xmlns:xlink="http://www.w3.org/1999/xlink">
    <!-- Generator: Sketch 60 (88103) - https://sketch.com -->
    <title>noun_search location_1665557</title>
    <desc>Created with Sketch.</desc>
    <g id="Page-1" stroke="none" stroke-width="1" fill="none" fill-rule="evenodd">
        <g id="gis-main-5" transform="translate(-31.000000, -250.000000)" fill="#FFFFFF" fill-rule="nonzero" stroke="#FFFFFF" stroke-width="0.3">
            <g id="사이드">
                <g id="Group-22" transform="translate(16.000000, 250.000000)">
                    <g id="noun_search-location_1665557" transform="translate(15.000000, 0.000000)">
                        <g id="Group" transform="translate(0.000000, 0.173951)">
                            <path d="M8.31717682,0.0683590909 C3.80967327,0.114403636 -0.3660555,4.44469909 0.349422,9.33578182 C0.848100273,13.0716 5.67900082,19.7392091 8.12117782,23.8257273 C8.31347073,24.1492364 8.86626791,24.1492364 9.05856082,23.8257273 C9.68159345,22.7735727 10.4514175,21.8567182 11.0952385,20.8390091 C11.2505381,20.5977273 11.1718099,20.2364727 10.9302477,20.0819455 C10.688685,19.9273909 10.3282579,20.0076818 10.1748987,20.2501909 C9.72492164,20.9614909 9.15046173,21.7457727 8.60691245,22.5542455 C5.11095982,16.7694 2.04414573,12.8106545 1.43167227,9.17365636 C1.43126318,9.17076545 1.43208136,9.16798364 1.43167227,9.16512 C0.826131273,4.98547909 4.51811564,1.20502636 8.317176,1.16065909 L8.325696,1.16065909 L8.58986755,1.16065909 L8.85403909,1.16065909 L8.86255909,1.16065909 C12.6616192,1.20502636 16.3536041,4.98547909 15.7480631,9.16512 C15.6332367,9.74500091 15.4604801,10.3213664 15.2964147,10.82064 C15.2069362,11.0932555 15.3733748,11.42283 15.6456794,11.5122273 C15.9179839,11.6016545 16.246977,11.4347264 16.3360579,11.16198 C16.5181195,10.5342573 16.7244993,9.89950636 16.8303134,9.33579 C17.545794,4.44470727 13.3700648,0.114411818 8.86256155,0.0683590909 L8.58986836,0.0683590909 L8.31717682,0.0683590909 Z M8.45352355,4.71060545 C6.65273182,4.71060545 5.18120482,6.18418091 5.18120482,7.98748364 C5.18120482,9.79078636 6.65273182,11.2643645 8.45352355,11.2643645 C10.2543153,11.2643645 11.7258423,9.79078636 11.7258423,7.98748364 C11.7258423,6.18418091 10.2543153,4.71060545 8.45352355,4.71060545 Z M8.45352355,5.80289727 C9.66481773,5.80289727 10.6350693,6.77449909 10.6350693,7.98748364 C10.6350693,9.20046818 9.66481773,10.17207 8.45352355,10.17207 C7.24222936,10.17207 6.27197782,9.20046818 6.27197782,7.98748364 C6.27197782,6.77449909 7.24222936,5.80289727 8.45352355,5.80289727 Z M14.5891208,12.6297273 C12.4117762,12.6297273 10.6350693,14.4095455 10.6350693,16.5892909 C10.6350693,18.7690636 12.4117762,20.5488545 14.5891208,20.5488545 C15.5525877,20.5488545 16.4416923,20.2039364 17.1285766,19.6272273 L20.0685502,22.5713182 C20.2701265,22.7788636 20.6440735,22.7804455 20.8473886,22.5745909 C21.0507035,22.3687364 21.0449956,21.9942818 20.8355005,21.7947545 L17.8529187,18.8080091 C18.2837776,18.1744636 18.5431732,17.4109909 18.5431732,16.5892909 C18.5431732,14.4095455 16.7664663,12.6297273 14.5891205,12.6297273 L14.5891208,12.6297273 Z M14.5891208,13.7220273 C16.1768842,13.7220273 17.4523996,14.9997818 17.4523996,16.5892909 C17.4523996,18.1788 16.1768842,19.4565818 14.5891208,19.4565818 C13.0013577,19.4565818 11.7258423,18.1788 11.7258423,16.5892909 C11.7258423,14.9997818 13.0013577,13.7220273 14.5891208,13.7220273 Z" id="Shape"></path>
                        </g>
                    </g>
                </g>
            </g>
        </g>
    </g>
</svg>