<?xml version="1.0" encoding="UTF-8"?>
<svg width="24px" height="24px" viewBox="0 0 24 24" version="1.1" xmlns="http://www.w3.org/2000/svg" xmlns:xlink="http://www.w3.org/1999/xlink">
    <!-- Generator: Sketch 60 (88103) - https://sketch.com -->
    <title>noun_Time_2055748</title>
    <desc>Created with Sketch.</desc>
    <g id="Page-1" stroke="none" stroke-width="1" fill="none" fill-rule="evenodd">
        <g id="gis-main-5" transform="translate(-30.000000, -331.000000)" fill="#FFFFFF" fill-rule="nonzero">
            <g id="사이드">
                <g id="Group-25" transform="translate(17.000000, 331.000000)">
                    <g id="noun_Time_2055748" transform="translate(13.000000, 0.000000)">
                        <g id="Group" transform="translate(0.780000, 0.120000)">
                            <path d="M19.041,3.498 C16.929,1.386 14.157,0.231 11.187,0.231 C9.042,0.231 6.996,0.825 5.214,1.98 C4.818,2.211 4.719,2.739 4.95,3.135 C5.181,3.531 5.709,3.63 6.105,3.399 C7.623,2.442 9.372,1.914 11.187,1.914 C16.401,1.914 20.658,6.171 20.658,11.385 C20.658,16.599 16.401,20.856 11.187,20.856 C10.593,20.856 9.999,20.79 9.438,20.691 L9.9,19.767 C10.131,19.338 9.801,18.81 9.306,18.843 L5.247,18.975 C4.719,19.008 4.455,19.569 4.752,19.998 L7.128,23.298 C7.425,23.694 8.019,23.628 8.217,23.199 L8.712,22.209 C9.537,22.407 10.362,22.506 11.22,22.506 C14.19,22.506 16.962,21.351 19.074,19.239 C21.186,17.127 22.341,14.355 22.341,11.385 C22.308,8.382 21.153,5.61 19.041,3.498 Z" id="Path"></path>
                            <path d="M11.187,2.904 C10.725,2.904 10.362,3.267 10.362,3.729 L10.362,11.352 C10.362,11.352 10.362,11.352 10.362,11.352 C10.362,11.352 10.362,11.385 10.362,11.385 C10.362,11.385 10.362,11.418 10.362,11.418 C10.362,11.418 10.362,11.451 10.362,11.451 C10.362,11.451 10.362,11.484 10.362,11.484 C10.362,11.484 10.362,11.517 10.362,11.517 C10.362,11.517 10.362,11.55 10.362,11.55 C10.362,11.55 10.362,11.583 10.362,11.583 C10.362,11.583 10.362,11.616 10.362,11.616 C10.362,11.616 10.362,11.649 10.395,11.649 C10.395,11.649 10.395,11.682 10.428,11.682 C10.428,11.682 10.428,11.715 10.461,11.715 C10.461,11.715 10.461,11.748 10.494,11.748 C10.494,11.748 10.527,11.781 10.527,11.781 C10.527,11.781 10.527,11.814 10.56,11.814 C10.56,11.814 10.593,11.847 10.593,11.847 C10.593,11.847 10.626,11.88 10.626,11.88 C10.626,11.88 10.659,11.913 10.659,11.913 C10.659,11.913 10.692,11.946 10.692,11.946 C10.692,11.946 10.692,11.946 10.692,11.946 L15.048,15.213 C15.213,15.312 15.378,15.378 15.543,15.378 C15.807,15.378 16.038,15.279 16.203,15.048 C16.467,14.685 16.401,14.157 16.038,13.893 L12.012,10.857 L12.012,3.729 C12.012,3.267 11.649,2.904 11.187,2.904 Z" id="Path"></path>
                            <circle id="Oval" transform="translate(2.321055, 6.230829) rotate(-59.999272) translate(-2.321055, -6.230829) " cx="2.321055" cy="6.230829" r="1"></circle>
                            <circle id="Oval" cx="0.924" cy="11.352" r="1"></circle>
                            <circle id="Oval" transform="translate(2.302245, 16.468551) rotate(-30.000728) translate(-2.302245, -16.468551) " cx="2.302245" cy="16.468551" r="1"></circle>
                        </g>
                    </g>
                </g>
            </g>
        </g>
    </g>
</svg>