<?xml version="1.0" encoding="UTF-8"?>
<svg width="24px" height="24px" viewBox="0 0 24 24" version="1.1" xmlns="http://www.w3.org/2000/svg" xmlns:xlink="http://www.w3.org/1999/xlink">
    <!-- Generator: Sketch 60 (88103) - https://sketch.com -->
    <title>noun_schedule notice_2366375</title>
    <desc>Created with Sketch.</desc>
    <g id="Page-1" stroke="none" stroke-width="1" fill="none" fill-rule="evenodd">
        <g id="gis-main-5" transform="translate(-30.000000, -177.000000)" fill="#FFFFFF" fill-rule="nonzero" stroke="#FFFFFF" stroke-width="0.3">
            <g id="사이드">
                <g id="Group-11" transform="translate(18.000000, 178.000000)">
                    <g id="noun_schedule-notice_2366375" transform="translate(13.000000, 0.000000)">
                        <g id="Group">
                            <path d="M18.8571429,2.63004762 L17.2448571,2.63004762 C16.9557143,2.63004762 16.7210476,2.86419048 16.7210476,3.15385714 C16.7210476,3.44352381 16.9557143,3.67766667 17.2448571,3.67766667 L18.8571429,3.67766667 C20.0126667,3.67766667 20.952381,4.61738095 20.952381,5.77290476 L20.952381,18.8681429 C20.952381,20.0236667 20.0126667,20.963381 18.8571429,20.963381 L3.14285714,20.963381 C1.98733333,20.963381 1.04761905,20.0236667 1.04761905,18.8681429 L1.04761905,5.77290476 C1.04761905,4.61738095 1.98733333,3.67766667 3.14285714,3.67766667 L4.76038095,3.67766667 C5.04952381,3.67766667 5.28419048,3.44352381 5.28419048,3.15385714 C5.28419048,2.86419048 5.04952381,2.63004762 4.76038095,2.63004762 L3.14285714,2.63004762 C1.40957143,2.63004762 0,4.03961905 0,5.77290476 L0,18.8681429 C0,20.6014286 1.40957143,22.011 3.14285714,22.011 L18.8571429,22.011 C20.5904286,22.011 22,20.6014286 22,18.8681429 L22,5.77290476 C22,4.03961905 20.5904286,2.63004762 18.8571429,2.63004762 Z" id="Path"></path>
                            <path d="M14.2544286,3.67766667 C14.5435714,3.67766667 14.7782381,3.44352381 14.7782381,3.15385714 C14.7782381,2.86419048 14.5435714,2.63004762 14.2544286,2.63004762 L8.03419048,2.63004762 C7.74504762,2.63004762 7.51038095,2.86419048 7.51038095,3.15385714 C7.51038095,3.44352381 7.74504762,3.67766667 8.03419048,3.67766667 L14.2544286,3.67766667 Z" id="Path"></path>
                            <path d="M19.9047619,8.39195238 C19.9047619,8.10228571 19.6700952,7.86814286 19.3809524,7.86814286 L2.61904762,7.86814286 C2.32990476,7.86814286 2.0952381,8.10228571 2.0952381,8.39195238 C2.0952381,8.68161905 2.32990476,8.9157619 2.61904762,8.9157619 L19.3809524,8.9157619 C19.6700952,8.9157619 19.9047619,8.68109524 19.9047619,8.39195238 Z" id="Path"></path>
                            <path d="M6.94309524,5.77290476 L6.94309524,0.534809524 C6.94309524,0.245142857 6.70842857,0.011 6.41928571,0.011 C6.13014286,0.011 5.89547619,0.245142857 5.89547619,0.534809524 L5.89547619,5.77290476 C5.89547619,6.06257143 6.13014286,6.29671429 6.41928571,6.29671429 C6.70842857,6.29671429 6.94309524,6.06204762 6.94309524,5.77290476 Z" id="Path"></path>
                            <path d="M15.7389048,0.011 C15.4497619,0.011 15.2150952,0.245142857 15.2150952,0.534809524 L15.2150952,5.77290476 C15.2150952,6.06257143 15.4497619,6.29671429 15.7389048,6.29671429 C16.0280476,6.29671429 16.2627143,6.06257143 16.2627143,5.77290476 L16.2627143,0.534809524 C16.2627143,0.245142857 16.0280476,0.011 15.7389048,0.011 Z" id="Path"></path>
                            <path d="M11,11.2729048 C9.06190476,11.2729048 7.4852381,12.8736667 7.4852381,14.8405714 L7.4852381,16.8666667 C7.4852381,17.248 7.18195238,17.5580952 6.80952381,17.5580952 C6.52038095,17.5580952 6.28571429,17.7922381 6.28571429,18.0819048 C6.28571429,18.3715714 6.52038095,18.6057143 6.80952381,18.6057143 L10.098,18.6057143 C10.2797619,18.917381 10.374054,19.305542 11,19.305542 C11.625946,19.305542 11.7202381,18.917381 11.902,18.6057143 L15.1904762,18.6057143 C15.1941429,18.6057143 15.1972857,18.6051905 15.2009524,18.6057143 C15.4900952,18.6057143 15.7247619,18.3715714 15.7247619,18.0819048 C15.7247619,17.7922381 15.4900952,17.5580952 15.2009524,17.5580952 L15.1957143,17.5580952 C15.1941429,17.5580952 15.1920476,17.5575714 15.1904762,17.5580952 C14.8206667,17.5580952 14.52,17.2474762 14.52,16.8666667 L14.52,14.8400476 C14.52,12.8731429 12.9407143,11.2729048 11,11.2729048 Z M11.5238095,17.558619 L10.4761905,17.558619 L8.39090476,17.558619 C8.48257143,17.3464762 8.53285714,17.1123333 8.53285714,16.8671905 L8.53285714,14.8405714 C8.53285714,13.4514286 9.63966667,12.3205238 11,12.3205238 C12.3634762,12.3205238 13.472381,13.4509048 13.472381,14.8405714 L13.472381,16.8666667 C13.472381,17.1123333 13.5231905,17.3459524 13.6143333,17.5580952 L11.5238095,17.5580952 L11.5238095,17.558619 Z" id="Shape"></path>
                        </g>
                    </g>
                </g>
            </g>
        </g>
    </g>
</svg>